<svg aria-hidden="true" style="position:absolute;width:0;height:0;overflow:hidden" xmlns="http://www.w3.org/2000/svg"><defs><symbol id="icon-weather-icon" viewBox="0 0 32 32"><path fill="#fff" style="fill:var(--color1, #fff)" d="M10.327 26h11.335a.999.999 0 0 1 .775 1.631c-.16.196-.389.325-.639.36l-.136.009H10.327a.999.999 0 0 1-.775-1.631c.16-.196.388-.325.639-.36l.136-.009zm-3.994-3.973h19.333a1.003 1.003 0 0 1 .989.931 1.002 1.002 0 0 1-.852 1.058l-.136.009H6.334a.999.999 0 0 1-.775-1.631c.16-.196.388-.325.639-.36l.136-.009v.001zM16 4.005c4.224 0 6.621 2.796 6.969 6.173h.107a4.905 4.905 0 0 1 3.48 1.436A4.919 4.919 0 0 1 28 15.091 4.915 4.915 0 0 1 23.076 20H8.924A4.918 4.918 0 0 1 4 15.091a4.915 4.915 0 0 1 4.925-4.91h.107c.349-3.4 2.744-6.173 6.969-6.173v-.001zm0 1.996c-2.761 0-5.169 2.179-5.169 5.187 0 .476-.425.851-.912.851h-.92c-1.681 0-3.045 1.333-3.045 2.981 0 1.647 1.364 2.981 3.045 2.981H23c1.681 0 3.045-1.333 3.045-2.981 0-1.647-1.364-2.981-3.045-2.981h-.92c-.487 0-.912-.373-.912-.851 0-3.047-2.408-5.187-5.169-5.187H16z"/></symbol><symbol id="icon-search-icon" viewBox="0 0 32 32"><path fill="none" stroke="#fff" style="stroke:var(--color1, #fff)" stroke-linejoin="round" stroke-linecap="round" stroke-width="2.286" d="m28 28-5.791-5.791m0 0a10.671 10.671 0 0 0 0-15.086 10.666 10.666 0 1 0 0 15.086z"/></symbol><symbol id="icon-location-icon" viewBox="0 0 32 32"><path fill="#fff" style="fill:var(--color1, #fff)" d="M16 2.667a12.003 12.003 0 0 1 12 12c0 4.099-2.235 7.453-4.589 9.86a27.198 27.198 0 0 1-3.835 3.221l-.568.387-.267.177-.503.32-.448.273-.555.323a2.505 2.505 0 0 1-2.472 0l-.555-.323-.693-.427-.256-.167-.547-.364a27.515 27.515 0 0 1-4.124-3.421c-2.355-2.409-4.589-5.761-4.589-9.86a12.003 12.003 0 0 1 12-12zm0 2.666a9.333 9.333 0 0 0-9.334 9.334c0 3.096 1.696 5.813 3.828 7.995.917.928 1.908 1.78 2.963 2.547l.611.435c.197.137.387.265.569.384l.52.333.457.279.385.225.607-.359.489-.307c.26-.165.54-.351.836-.556l.611-.435a24.038 24.038 0 0 0 2.963-2.547c2.132-2.18 3.828-4.899 3.828-7.995a9.333 9.333 0 0 0-9.334-9.334zm0 4a5.332 5.332 0 1 1 0 10.665 5.332 5.332 0 0 1 0-10.665zM16 12a2.668 2.668 0 1 0 0 5.336A2.668 2.668 0 0 0 16 12z"/></symbol></defs></svg>